# xmcd CD database file
#
# Track frame offsets:
#	150
#	17055
#	33697
#	48627
#	65195
#	80420
#
# Disc length: 1337 seconds
#
# Revision: 0
# Processed by: cddbd v1.5.1PL0 Copyright (c) Steve Scherf et al.
# Submitted via: CDex 1.51
#
DISCID=51053706
DTITLE=Chely Wright - Everything
DYEAR=2004
DGENRE=Country
TTITLE0=Back Of The Bottom Drawer
TTITLE1=Everything
TTITLE2=Love Lets Go (Home Studio Demo)
TTITLE3=Sex, Drugs And Rock and Roll (Studio Demo)
TTITLE4=If I Were Jackie (Home Studio Demo)
TTITLE5=Scars (Home Studio Demo)
EXTD=YEAR: 2004
EXTT0=
EXTT1=
EXTT2=
EXTT3=
EXTT4=
EXTT5=
PLAYORDER=
